<?xml version="1.0" encoding="UTF-8" standalone="no"?>
<!-- Created with Inkscape (http://www.inkscape.org/) -->

<svg
   width="53.046001mm"
   height="89.480003mm"
   viewBox="0 0 53.046001 89.480003"
   version="1.1"
   id="svg894"
   inkscape:version="1.1 (c68e22c387, 2021-05-23)"
   sodipodi:docname="g&amp;nlogo.svg"
   xmlns:inkscape="http://www.inkscape.org/namespaces/inkscape"
   xmlns:sodipodi="http://sodipodi.sourceforge.net/DTD/sodipodi-0.dtd"
   xmlns="http://www.w3.org/2000/svg"
   xmlns:svg="http://www.w3.org/2000/svg">
  <sodipodi:namedview
     id="namedview896"
     pagecolor="#ffffff"
     bordercolor="#666666"
     borderopacity="1.0"
     inkscape:pageshadow="2"
     inkscape:pageopacity="0.0"
     inkscape:pagecheckerboard="0"
     inkscape:document-units="mm"
     showgrid="false"
     inkscape:zoom="0.67081229"
     inkscape:cx="-151.30909"
     inkscape:cy="354.04837"
     inkscape:window-width="1920"
     inkscape:window-height="1129"
     inkscape:window-x="-8"
     inkscape:window-y="-8"
     inkscape:window-maximized="1"
     inkscape:current-layer="layer1" />
  <defs
     id="defs891" />
  <g
     inkscape:label="Layer 1"
     inkscape:groupmode="layer"
     id="layer1">
    <path
       style="color:#000000;display:inline;fill:#ffd6dc;fill-opacity:1;stroke-width:2.59557;stroke-linecap:round;stroke-linejoin:round;-inkscape-stroke:none"
       d="M 31.535905,1.7483674 C 14.940495,7.4868674 5.3330852,23.712391 1.9698223,38.981481 -1.3231922,52.912001 4.116907,63.620561 13.042851,68.330291 l -7.3258605,18.93948 c -0.3009588,0.77827 -0.2643726,0.99745 0.085861,1.137503 0.4682008,0.18729 0.6027486,0.0332 0.9050733,-0.682403 l 7.8666742,-18.62165 c 18.043275,6.93149 35.683711,-9.51639 37.398161,-19.40229 0.854366,-6.42768 -5.932976,-6.64518 -11.652802,-7.57944 1.949561,-5.96864 3.987828,-12.90375 5.028599,-17.22428 C 47.15549,17.555156 49.536696,4.6333434 41.576527,1.6985364 39.687158,1.0423204 35.921115,0.50551838 31.535905,1.7483674 Z M 43.330038,24.495521 c -1.639154,5.98814 -3.916916,12.334 -5.582471,17.41389 l -4.266443,-0.4757 -0.397455,-16.89398 c -0.01819,-1.73133 -1.760681,-2.09725 -2.422232,-0.49719 l -6.132082,16.3314 c 0,0 -8.749842,-1.14202 -8.888835,-1.16013 -0.139122,-0.0182 -0.517711,-0.0551 -0.551741,0.31489 -0.03193,0.34609 0.154956,0.44174 0.413164,0.498 2.745358,0.59839 5.748949,1.08763 8.584507,1.61054 l -10.647049,25.63916 c -26.541303,-18.2495 4.862977,-71.6540574 26.622637,-65.0646176 9.544439,2.890326 4.464632,17.9121696 3.268,22.2837376 z m -11.865749,4.22509 -0.370982,12.47045 -4.389525,-0.5539 z m -5.236606,13.29259 4.888205,0.78984 -0.02779,18.96424 c 0.02336,1.76977 1.901906,1.9245 2.50413,0.26016 0,0 3.054378,-8.3824 6.104178,-17.53446 l 5.925998,0.86128 c 2.174372,0.41147 3.980142,1.30032 3.757291,3.89593 -0.968876,11.28414 -19.028534,24.92357 -34.382112,18.77771 z m 7.335931,1.25068 3.572559,0.68814 c -1.335342,3.99752 -2.767206,8.3566 -3.798499,11.30642 z"
       id="path857"
       sodipodi:nodetypes="cccsssccccccccssssccssscccccccccccccccccccc"
       inkscape:export-filename="C:\Users\gen6n\OneDrive\Desktop\g&amp;nlogo.png"
       inkscape:export-xdpi="600"
       inkscape:export-ydpi="600" />
  </g>
</svg>
